# xmcd CD database file
#
# Track frame offsets:
#	150
#	22831
#	44753
#	63024
#	83563
#	102607
#	123252
#	146813
#	172061
#	197646
#	214720
#	238191
#	261659
#	283186
#	308472
#
# Disc length: 4460 seconds
#
# Revision: 3
# Processed by: cddbd v1.5.2PL0 Copyright (c) Steve Scherf et al.
# Submitted via: CDex 1.70beta3
#
DISCID=de116a0f
DTITLE=GRAPEVINE - Best of GRAPEVINE 1997-2012
DYEAR=2012
DGENRE=Rock
TTITLE0=覚醒
TTITLE1=君を待つ間
TTITLE2=遠くの君へ
TTITLE3=会いにいく
TTITLE4=ナツノヒカリ
TTITLE5=リトル・ガール・トリートメント
TTITLE6=Our Song
TTITLE7=望みの彼方
TTITLE8=here
TTITLE9=白日
TTITLE10=スロウ
TTITLE11=アナザーワールド
TTITLE12=風待ち
TTITLE13=光について
TTITLE14=Everyman,everywhere
EXTD=YEAR: 2012
EXTT0=
EXTT1=
EXTT2=
EXTT3=
EXTT4=
EXTT5=
EXTT6=
EXTT7=
EXTT8=
EXTT9=
EXTT10=
EXTT11=
EXTT12=
EXTT13=
EXTT14=
PLAYORDER=
